PathFileType	4	(X/Y/Z)	C:\Users\Basilio\Documents\Thesis Gigler\squatting_fais\c3dfiles\041\SJ_pre4\markers_experimental.trc
DataRate	CameraRate	NumFrames	NumMarkers	Units	OrigDataRate	OrigDataStartFrame	OrigNumFrames
200.000000	200.000000	4	62	mm	200.000000	1561	1785
Frame#	Time	FHD			LBHD			RBHD			C7			T10			CLAV			LSHO			LUUPA			LMUPA			LDUPA			LLEP			LMEP			LRAD			LUL			LRFIN			RSHO			RUPA1			RMUPA			RDUPA			RLEP			RMEP			RRAD			RUL			RUFIN			LASI			RASI			USACR			LSACR			RSACR			LTHI1			LTHI2			LTHI3			LTHI4			LLFC			LMFC			LTIB1			LTIB2			LTIB3			LTIB4			LLMAL			LMMAL			LHEE			LMT1			LMT2			LMT5			RTHI			RTHI2			RTHI3			RTHI4			RLFC			RMFC			RTIB1			RTIB2			RTIB3			RTIB4			RLMAL			RMMAL			RHEE			RMT1			RMT2			RMT5			*61			
		X1	Y1	Z1	X2	Y2	Z2	X3	Y3	Z3	X4	Y4	Z4	X5	Y5	Z5	X6	Y6	Z6	X7	Y7	Z7	X8	Y8	Z8	X9	Y9	Z9	X10	Y10	Z10	X11	Y11	Z11	X12	Y12	Z12	X13	Y13	Z13	X14	Y14	Z14	X15	Y15	Z15	X16	Y16	Z16	X17	Y17	Z17	X18	Y18	Z18	X19	Y19	Z19	X20	Y20	Z20	X21	Y21	Z21	X22	Y22	Z22	X23	Y23	Z23	X24	Y24	Z24	X25	Y25	Z25	X26	Y26	Z26	X27	Y27	Z27	X28	Y28	Z28	X29	Y29	Z29	X30	Y30	Z30	X31	Y31	Z31	X32	Y32	Z32	X33	Y33	Z33	X34	Y34	Z34	X35	Y35	Z35	X36	Y36	Z36	X37	Y37	Z37	X38	Y38	Z38	X39	Y39	Z39	X40	Y40	Z40	X41	Y41	Z41	X42	Y42	Z42	X43	Y43	Z43	X44	Y44	Z44	X45	Y45	Z45	X46	Y46	Z46	X47	Y47	Z47	X48	Y48	Z48	X49	Y49	Z49	X50	Y50	Z50	X51	Y51	Z51	X52	Y52	Z52	X53	Y53	Z53	X54	Y54	Z54	X55	Y55	Z55	X56	Y56	Z56	X57	Y57	Z57	X58	Y58	Z58	X59	Y59	Z59	X60	Y60	Z60	X61	Y61	Z61	X62	Y62	Z62	

1562	7.805000000000001	-262.2735290527344	1754.212280273438	-939.596862792969	-422.7491455078126	1663.107666015625	-1025.555786132813	-410.783416748047	1663.486328125	-873.0443115234377	-453.9282531738282	1519.0400390625	-961.9439697265627	-466.4955444335939	1201.524047851563	-961.7100830078127	-294.7354431152344	1464.605590820313	-963.0854492187502	-395.0526123046876	1516.200805664063	-1124.910888671875	-449.2682189941407	1382.9765625	-1267.033447265625	-424.1016235351564	1340.113647460938	-1268.1806640625	-469.4784240722657	1330.63427734375	-1308.247314453125	-477.7095947265626	1284.401123046875	-1333.665161132813	-528.4215698242189	1239.661499023438	-1270.22119140625	-370.4490661621094	1093.403564453125	-1176.003295898438	-354.7103881835938	1054.97265625	-1238.04150390625	-321.1445617675782	1073.571411132813	-1138.662109375	-378.8591308593751	1516.079833984375	-798.8552856445315	-427.8054809570314	1371.255126953125	-634.5288085937501	-383.1596679687501	1347.106079101563	-641.3941650390626	-404.4803161621095	1313.59130859375	-599.2775268554689	-395.5206909179689	1266.117065429688	-581.7544555664064	-471.451629638672	1234.592529296875	-629.1053466796876	-371.2576293945313	1069.350952148438	-748.8117675781251	-331.8269042968751	1056.846435546875	-795.988464355469	-337.9117736816407	1027.553466796875	-693.4927978515626	-284.0243225097657	1015.140869140625	-1073.488647460938	-291.8974304199219	1002.963439941406	-857.155212402344	-467.7115173339845	1090.037109375	-967.351989746094	-482.4842529296876	1065.4287109375	-995.2363891601565	-488.9683837890626	1064.64892578125	-941.965515136719	-420.7412109375001	826.4470214843752	-1170.396728515625	-389.6873779296876	748.2547607421876	-1178.246948242188	-342.2945556640626	748.4733276367189	-1168.959106445313	-421.1936035156251	696.0414428710939	-1172.408081054688	-409.780242919922	515.9066162109376	-1184.065673828125	-399.389129638672	478.9229431152345	-1070.197143554688	-377.5065307617188	318.5034790039063	-1159.718505859375	-425.7843322753907	285.4717407226563	-1228.0830078125	-388.988250732422	278.1104736328126	-1202.887939453125	-388.5249023437501	196.1828308105469	-1182.835083007813	-444.9272766113282	102.0015106201172	-1236.50634765625	-406.5665283203126	103.8989334106446	-1154.927490234375	-501.7088623046876	52.89402389526369	-1204.42626953125	-286.0037536621094	61.07450103759767	-1175.597290039063	-279.0244445800782	60.68025588989259	-1219.78369140625	-318.0676879882813	35.21651077270509	-1276.5498046875	-434.9076232910157	767.1634521484376	-769.5796508789065	-399.9973144531251	711.2127075195314	-759.1979980468751	-366.9116210937501	710.4731445312501	-761.4696044921876	-430.5411071777345	632.8674926757814	-769.239440917969	-432.2376708984376	506.2020568847657	-754.7088623046876	-405.0425415039064	473.0260009765626	-867.5267333984377	-394.3562316894532	340.4343872070313	-737.6157836914064	-474.4513549804689	263.4134216308594	-718.7663574218751	-427.5412597656251	262.9323425292969	-714.9468994140626	-401.4920349121095	212.8605041503907	-734.7232055664064	-452.4567871093751	94.57607269287111	-709.8011474609376	-418.2294006347657	102.7521057128907	-787.0751953125002	-503.2920837402345	49.5948944091797	-757.6083374023439	-285.3893127441407	53.68259811401369	-750.3712158203126	-286.6734619140626	58.24161911010744	-698.2323608398439	-333.0333251953126	36.7471046447754	-651.3972167968751	-4217.384765625001	853.2525634765627	-3944.746582031251	
1563	7.81	-262.0515136718751	1754.268310546875	-939.5483398437502	-422.2514038085939	1663.0380859375	-1025.546752929688	-410.4339904785157	1663.569091796875	-872.9260253906252	-453.4642333984376	1519.042114257813	-961.7986450195315	-466.1677856445314	1201.535400390625	-961.5473632812502	-294.3759765625001	1464.4599609375	-962.9503173828127	-394.6206359863282	1516.177978515625	-1124.82666015625	-448.7958374023439	1382.920043945313	-1266.935668945313	-423.784149169922	1340.022094726563	-1268.049560546875	-469.0217590332032	1330.582885742188	-1308.166137695313	-477.279022216797	1284.27587890625	-1333.582275390625	-528.0287475585939	1239.609130859375	-1270.040771484375	-370.1163330078126	1093.281860351563	-1175.89453125	-354.3225708007813	1054.774169921875	-1237.85205078125	-320.8562316894532	1073.436157226563	-1138.440307617188	-378.5646057128907	1516.023559570313	-798.7571411132815	-427.4883117675782	1371.241088867188	-634.4241333007814	-382.7321472167969	1347.180297851563	-641.3508300781251	-404.1222534179689	1313.62548828125	-599.1235961914064	-395.136688232422	1266.009521484375	-581.7661743164064	-470.9857788085939	1234.599975585938	-629.0177612304689	-370.9725952148438	1069.320556640625	-748.7071533203126	-331.4437255859376	1056.655395507813	-795.8250732421877	-337.5641479492188	1027.523071289063	-693.3156127929689	-283.6261291503907	1015.066955566406	-1073.391845703125	-291.7264404296876	1002.866882324219	-856.9729003906252	-467.3678283691407	1090.0107421875	-967.1704711914065	-482.1537170410157	1065.444580078125	-995.0950927734377	-488.5040893554689	1064.62744140625	-941.7230224609377	-420.4375305175782	826.4387817382815	-1170.274047851563	-389.4022216796876	748.2221069335939	-1178.122192382813	-342.0129394531251	748.4283447265626	-1168.7666015625	-420.9674072265626	695.9344482421876	-1172.31201171875	-409.727020263672	515.9599609375001	-1183.972778320313	-399.189666748047	478.9884643554689	-1070.149658203125	-377.4463195800782	318.5908203125001	-1159.703491210938	-425.8557739257814	285.5042114257813	-1228.039916992188	-388.9964599609376	278.1384582519532	-1202.894165039063	-388.5348510742189	196.1924896240235	-1182.810424804688	-444.9558715820314	102.0250244140625	-1236.459838867188	-406.5835571289064	103.8284072875977	-1154.935302734375	-501.8558959960939	53.21865463256837	-1204.363891601563	-285.9582214355469	61.05681228637697	-1175.609130859375	-279.0511169433594	60.66275024414064	-1219.792602539063	-318.0507202148438	35.21023178100587	-1276.555908203125	-434.652557373047	767.2019653320314	-769.427673339844	-399.8358154296876	711.0467529296876	-759.2064819335939	-366.6514587402344	710.3651733398439	-761.3952636718751	-430.4749145507814	632.9254760742189	-769.1700439453127	-432.330047607422	506.2029418945314	-754.6127929687501	-405.2512512207032	473.061492919922	-867.368103027344	-394.3590087890626	340.4474487304688	-737.5841674804689	-474.5103454589845	263.4536437988282	-718.7113037109376	-427.5613098144532	262.9557800292969	-714.9264526367189	-401.5095520019532	212.8370208740235	-734.6654663085939	-452.4678955078126	94.59373474121095	-709.7892456054689	-418.3031616210939	102.776481628418	-787.063659667969	-503.2931213378907	49.59105300903322	-757.6032714843751	-285.4324951171876	53.70552062988283	-750.3468017578126	-287.0361938476563	57.91585159301759	-698.3622436523439	-333.0657348632813	36.67422103881837	-651.3829956054689	-4217.002441406251	853.2124633789065	-3944.775878906251	
1564	7.815	-261.4765319824219	1754.078735351563	-939.528015136719	-421.8036499023439	1662.99072265625	-1025.44873046875	-409.8212890625001	1663.6318359375	-872.8767089843752	-453.0589294433595	1518.935180664063	-961.7319946289065	-465.877899169922	1201.518920898438	-961.4663696289065	-293.9057006835938	1464.4072265625	-963.0659790039065	-394.2211303710939	1516.14208984375	-1124.772583007813	-448.2933959960939	1382.878784179688	-1266.77099609375	-423.4226379394532	1339.972412109375	-1267.920043945313	-468.6870117187501	1330.545654296875	-1308.03564453125	-476.8411560058595	1284.135375976563	-1333.419189453125	-527.5847778320314	1239.568115234375	-1269.892822265625	-369.8154296875001	1093.213134765625	-1175.72802734375	-353.9881286621094	1054.712524414063	-1237.71435546875	-320.4494323730469	1073.328857421875	-1138.371459960938	-378.2342529296876	1515.989990234375	-798.718688964844	-427.0671997070314	1371.218872070313	-634.2666015625001	-382.4695129394532	1347.194458007813	-641.2236938476564	-403.7377319335939	1313.70703125	-598.9975585937501	-394.7916259765626	1266.03125	-581.6394653320314	-470.6824951171876	1234.649536132813	-628.8707885742189	-370.5994567871094	1069.268920898438	-748.5723876953126	-331.0569763183594	1056.5830078125	-795.7188110351565	-337.1647033691407	1027.400024414063	-693.1441650390626	-283.0291442871094	1015.064208984375	-1073.415283203125	-291.4990539550782	1002.793579101563	-856.8096923828127	-466.9357910156251	1089.939819335938	-967.0161743164065	-481.8485107421876	1065.445434570313	-994.9034423828127	-488.1091613769532	1064.622924804688	-941.5232543945315	-420.087860107422	826.447937011719	-1170.221313476563	-389.1970825195314	748.3013305664064	-1178.01220703125	-341.7897033691407	748.4100952148439	-1168.628295898438	-420.8220825195314	695.9673461914064	-1172.280883789063	-409.7188110351564	515.9185180664064	-1183.779541015625	-399.3302307128907	478.9758911132814	-1070.072387695313	-377.5283508300782	318.5292663574219	-1159.633911132813	-425.8945312500001	285.5729980468751	-1227.980590820313	-389.0314331054689	278.1725463867188	-1202.765380859375	-388.6058654785157	196.2215270996094	-1182.738037109375	-445.320526123047	102.2722549438477	-1236.389404296875	-406.5165100097657	103.8682022094727	-1154.840942382813	-501.6545715332032	52.91910934448244	-1204.358642578125	-285.9497070312501	61.06209182739259	-1175.646118164063	-279.0906982421876	60.60074996948244	-1219.785278320313	-318.0424499511719	35.21177291870118	-1276.562377929688	-434.332489013672	767.2346801757814	-769.4144287109377	-399.7220458984376	711.1279296875001	-759.0296020507814	-366.4228515625001	710.3457641601564	-761.3946533203126	-430.2792053222657	632.9303588867189	-769.0999145507815	-432.4366455078126	506.2362670898439	-754.5303955078126	-405.8676147460939	473.3061523437501	-867.1526489257815	-394.3933715820314	340.4936218261719	-737.5894165039064	-474.559783935547	263.4429016113282	-718.7280883789064	-427.6235656738282	262.8864746093751	-714.9244384765626	-401.5355224609376	212.8718261718751	-734.6602783203126	-452.5116271972657	94.59143066406251	-709.8003540039064	-418.2623596191407	102.7340469360352	-787.064392089844	-503.2450561523439	49.64315795898439	-757.5956420898439	-285.4320373535157	53.70634078979494	-750.4060668945314	-287.0109558105469	57.87083053588869	-698.3414306640626	-333.0663452148438	36.71036529541016	-651.3563842773439	-4217.365234375001	853.2190551757815	-3944.723144531251	
1565	7.82	-261.1647338867188	1754.195556640625	-939.471374511719	-421.3307495117189	1662.969604492188	-1025.378173828125	-409.3090820312501	1663.599609375	-872.8836669921877	-452.622772216797	1518.906860351563	-961.658630371094	-465.5519104003907	1201.552368164063	-961.3171997070315	-293.7067871093751	1464.268676757813	-962.8206787109377	-393.7447509765626	1516.133178710938	-1124.76953125	-447.883514404297	1382.800415039063	-1266.664428710938	-422.9515991210939	1339.94775390625	-1267.805541992188	-468.3435363769532	1330.4921875	-1307.940185546875	-476.4854125976564	1284.064697265625	-1333.276000976563	-527.0996704101564	1239.592895507813	-1269.713989257813	-369.4624328613282	1093.116455078125	-1175.560668945313	-353.6679687500001	1054.640014648438	-1237.567504882813	-320.1509399414063	1073.263916015625	-1138.182861328125	-377.7749328613282	1515.98291015625	-798.668151855469	-426.6453247070314	1371.037353515625	-634.4616088867189	-382.0916137695313	1347.261962890625	-641.0800781250001	-403.4389953613282	1313.72119140625	-598.7640380859376	-394.3804016113282	1266.14404296875	-581.4140625000001	-470.3929748535157	1234.767578125	-628.7854614257814	-370.3117980957032	1069.180297851563	-748.4520263671876	-330.6994323730469	1056.446166992188	-795.6294555664065	-336.8893432617188	1027.303100585938	-692.8854980468751	-282.7878112792969	1014.945190429688	-1073.258056640625	-291.2755126953126	1002.583923339844	-856.6579589843752	-466.6234130859376	1089.962158203125	-966.8040771484377	-481.5056457519532	1065.450927734375	-994.8041992187502	-487.7459411621095	1064.60107421875	-941.3599243164065	-419.6790161132814	826.4490966796877	-1170.195068359375	-388.9083251953126	748.3169555664064	-1177.829956054688	-341.5446472167969	748.3353271484376	-1168.515625	-420.5343017578126	695.9578247070314	-1172.160034179688	-409.7013549804689	515.9666748046876	-1183.685546875	-399.5194396972657	478.9207153320314	-1069.994140625	-377.5166625976563	318.5913085937501	-1159.576171875	-425.9647521972657	285.5297241210938	-1227.930541992188	-389.1018981933595	278.1921997070313	-1202.76416015625	-388.5699157714845	196.2410888671876	-1182.738647460938	-445.3192749023439	102.3005828857422	-1236.335571289063	-406.4848022460939	103.8755493164063	-1154.806518554688	-501.819549560547	53.14270782470705	-1204.238647460938	-285.8689270019532	61.04486465454103	-1175.651733398438	-279.0350341796876	60.56959533691408	-1219.7998046875	-318.0351867675782	35.20270538330079	-1276.576538085938	-433.9892578125001	767.2564697265626	-769.371520996094	-399.5531616210939	711.1990966796876	-758.6795043945314	-366.3177490234376	710.2863159179689	-761.2986450195314	-430.0687561035157	632.9151000976564	-769.014343261719	-432.4305114746095	506.2389221191407	-754.4509277343751	-405.5222778320314	473.1025695800782	-867.262878417969	-394.4353637695314	340.4978637695313	-737.5509033203126	-474.6427001953126	263.5149230957032	-718.6572875976564	-427.6457824707032	262.9253234863282	-714.8542480468751	-401.582489013672	212.8527984619141	-734.5756835937501	-452.5192260742189	94.59715270996095	-709.8169555664064	-418.2960510253907	102.7645034790039	-787.041198730469	-503.2502441406251	49.60337448120119	-757.6882324218751	-285.3973388671876	53.69426727294923	-750.3571777343751	-287.0520324707032	57.90832138061525	-698.2881469726564	-333.1076354980469	36.67632293701173	-651.3165283203126	-4216.879394531251	853.1915283203127	-3944.791748046876	
